<svg width="688" height="744" viewBox="0 0 688 744" fill="none" xmlns="http://www.w3.org/2000/svg" preserveAspectRatio="xMinYMin slice">
<rect width="688" height="744" fill="#18181B"/>
<path d="M364 353V151C364 117.863 390.863 91 424 91H604" stroke="#FAFAFA"/>
<path d="M364 353V621C364 654.137 390.863 681 424 681H604" stroke="#FAFAFA"/>
<path d="M556.5 554V554C526.124 554 501.5 578.624 501.5 609V681" stroke="#FAFAFA"/>
<path d="M364 353V353C364 324.281 387.281 301 416 301H604" stroke="#FAFAFA"/>
<path d="M364 353V81C364 47.8629 337.137 21 304 21H-32.5" stroke="#FAFAFA"/>
<path d="M364 353V719.5" stroke="#FAFAFA"/>
<path d="M364 371H153.5C120.363 371 93.5 397.863 93.5 431L93.5 529.5" stroke="#FAFAFA"/>
<path d="M364 371H103.5C70.3629 371 43.5 344.137 43.5 311L43.5 -10" stroke="#FAFAFA"/>
<path d="M709.5 719.5H153.5C120.363 719.5 93.5 692.637 93.5 659.5L93.5 640" stroke="#FAFAFA"/>
<path d="M75 530H111" stroke="#FAFAFA"/>
<path d="M75 640H111" stroke="#FAFAFA"/>
<circle cx="364.5" cy="371.5" r="116" stroke="#FAFAFA"/>
<path d="M284.745 382.5C284.254 378.904 284 375.231 284 371.5C284 327.041 320.041 291 364.5 291C408.959 291 445 327.041 445 371.5C445 415.959 408.959 452 364.5 452C352.154 452 340.456 449.221 330 444.253" stroke="#FAFAFA"/>
<circle cx="364.5" cy="371.5" r="44" stroke="#FAFAFA"/>
<circle cx="364.5" cy="371.5" r="192" stroke="#FAFAFA"/>
<circle cx="364.5" cy="371.5" r="150" stroke="#FAFAFA"/>
<rect x="64.5" y="132.5" width="215" height="136" fill="#18181B" stroke="#FAFAFA"/>
<circle cx="85.5" cy="168.5" r="10" fill="#FAFAFA" stroke="#FAFAFA"/>
<rect x="113.5" y="172.5" width="117" height="74" fill="#18181B" stroke="#FAFAFA"/>
<rect x="64" y="132" width="216" height="19" fill="#FAFAFA"/>
<rect x="-38.5" y="44.5" width="204" height="39" rx="19.5" fill="#18181B" stroke="#FAFAFA"/>
<circle cx="132" cy="64" r="13.5" fill="#FAFAFA" stroke="#FAFAFA"/>
<rect x="560.5" y="61.5" width="54" height="54" fill="#FAFAFA" stroke="#FAFAFA"/>
<rect x="555.5" y="56.5" width="54" height="54" fill="#18181B" stroke="#FAFAFA"/>
<path d="M575.208 98.0833H570.833C570.06 98.0833 569.318 97.776 568.771 97.2291C568.224 96.6821 567.917 95.9402 567.917 95.1667V84.9583C567.917 84.1848 568.224 83.4429 568.771 82.8959C569.318 82.349 570.06 82.0417 570.833 82.0417H575.208M585.417 79.125V73.2917C585.417 72.1313 584.956 71.0185 584.135 70.1981C583.315 69.3776 582.202 68.9167 581.042 68.9167L575.208 82.0417V98.0833H591.658C592.362 98.0913 593.044 97.8448 593.58 97.3892C594.116 96.9336 594.47 96.2997 594.575 95.6042L596.588 82.4792C596.651 82.0611 596.623 81.6343 596.505 81.2283C596.387 80.8222 596.182 80.4467 595.905 80.1276C595.627 79.8086 595.284 79.5536 594.898 79.3805C594.512 79.2074 594.094 79.1202 593.671 79.125H585.417Z" stroke="#FAFAFA" stroke-linecap="square"/>
<rect x="-18" y="312" width="140" height="175" fill="#FAFAFA"/>
<rect x="-8" y="322" width="120" height="130" fill="#18181B"/>
<rect width="120" height="7" transform="matrix(1 0 0 -1 -8 467)" fill="#18181B"/>
<rect width="50" height="7" transform="matrix(1 0 0 -1 -8 479)" fill="#18181B"/>
<path d="M647 495V585H557V495C557 470.147 577.147 450 602 450C626.853 450 647 470.147 647 495Z" stroke="#FAFAFA"/>
<path d="M591.5 564C592.881 564 594 562.881 594 561.5C594 560.119 592.881 559 591.5 559C590.119 559 589 560.119 589 561.5C589 562.881 590.119 564 591.5 564Z" stroke="#FAFAFA" stroke-linecap="square"/>
<path d="M619 564C620.381 564 621.5 562.881 621.5 561.5C621.5 560.119 620.381 559 619 559C617.619 559 616.5 560.119 616.5 561.5C616.5 562.881 617.619 564 619 564Z" stroke="#FAFAFA" stroke-linecap="square"/>
<path d="M571.5 511.5H581.5L588.2 544.975C588.429 546.126 589.055 547.16 589.969 547.896C590.883 548.632 592.027 549.022 593.2 549H617.5C618.673 549.022 619.817 548.632 620.731 547.896C621.645 547.16 622.271 546.126 622.5 544.975L626.5 524H584" stroke="#FAFAFA" stroke-linecap="square"/>
<path d="M86.65 556.84C89.0592 556.276 91.5257 555.994 94 556C118.5 556 132.5 584 132.5 584C130.375 587.975 127.842 591.717 124.94 595.165M101.42 591.42C100.459 592.452 99.2995 593.279 98.0115 593.853C96.7235 594.427 95.3332 594.735 93.9233 594.76C92.5135 594.785 91.1131 594.526 89.8056 593.998C88.4982 593.47 87.3105 592.684 86.3135 591.687C85.3164 590.69 84.5304 589.502 84.0023 588.194C83.4742 586.887 83.2148 585.487 83.2397 584.077C83.2646 582.667 83.5732 581.276 84.1471 579.988C84.721 578.701 85.5484 577.541 86.58 576.58M114.79 604.79C108.807 609.351 101.522 611.877 94 612C69.5 612 55.5 584 55.5 584C59.8536 575.887 65.892 568.798 73.21 563.21L114.79 604.79Z" stroke="#FAFAFA" stroke-linecap="square"/>
<path d="M55.5 545.5L132.5 622.5" stroke="#FAFAFA" stroke-linecap="square"/>
<rect x="562" y="599" width="80" height="100" fill="#FAFAFA"/>
<path d="M602 674.833C616.267 674.833 627.833 663.267 627.833 649C627.833 634.733 616.267 623.167 602 623.167C587.733 623.167 576.167 634.733 576.167 649C576.167 663.267 587.733 674.833 602 674.833Z" stroke="#18181B" stroke-linecap="round" stroke-linejoin="round"/>
<path d="M576.167 649H627.833" stroke="#18181B" stroke-linecap="round" stroke-linejoin="round"/>
<path d="M602 623.167C608.462 630.241 612.134 639.421 612.333 649C612.134 658.579 608.462 667.759 602 674.833C595.538 667.759 591.866 658.579 591.667 649C591.866 639.421 595.538 630.241 602 623.167V623.167Z" stroke="#18181B" stroke-linecap="round" stroke-linejoin="round"/>
<path d="M647.5 167H620.5C618.015 167 616 169.015 616 171.5V198.5C616 200.985 618.015 203 620.5 203H647.5C649.985 203 652 200.985 652 198.5V171.5C652 169.015 649.985 167 647.5 167Z" stroke="#FAFAFA" stroke-linecap="square"/>
<path d="M640.75 178.25H627.25V191.75H640.75V178.25Z" stroke="#FAFAFA" stroke-linecap="square"/>
<path d="M627.25 160.25V167" stroke="#FAFAFA" stroke-linecap="square"/>
<path d="M640.75 160.25V167" stroke="#FAFAFA" stroke-linecap="square"/>
<path d="M627.25 203V209.75" stroke="#FAFAFA" stroke-linecap="square"/>
<path d="M640.75 203V209.75" stroke="#FAFAFA" stroke-linecap="square"/>
<path d="M652 178.25H658.75" stroke="#FAFAFA" stroke-linecap="square"/>
<path d="M652 189.5H658.75" stroke="#FAFAFA" stroke-linecap="square"/>
<path d="M609.25 178.25H616" stroke="#FAFAFA" stroke-linecap="square"/>
<path d="M609.25 189.5H616" stroke="#FAFAFA" stroke-linecap="square"/>
<rect x="542.5" y="264.5" width="157" height="115" fill="#18181B" stroke="#FAFAFA"/>
<rect x="551.5" y="274.5" width="148" height="95" fill="#18181B" stroke="#FAFAFA"/>
<rect x="647" y="290" width="60" height="13" fill="#FAFAFA"/>
<rect x="647" y="315" width="60" height="13" fill="#FAFAFA"/>
<rect x="647" y="341" width="60" height="13" fill="#FAFAFA"/>
<path d="M619 344.5V339.5C619 336.848 617.946 334.304 616.071 332.429C614.196 330.554 611.652 329.5 609 329.5H589C586.348 329.5 583.804 330.554 581.929 332.429C580.054 334.304 579 336.848 579 339.5V344.5" stroke="#FAFAFA" stroke-linecap="square"/>
<path d="M599 319.5C604.523 319.5 609 315.023 609 309.5C609 303.977 604.523 299.5 599 299.5C593.477 299.5 589 303.977 589 309.5C589 315.023 593.477 319.5 599 319.5Z" stroke="#FAFAFA" stroke-linecap="square"/>
<rect x="321" y="608" width="216" height="19" fill="#FAFAFA"/>
<path d="M496 622H415L382 533.5C304.8 533.5 276.167 469.5 271.5 437.5C291.667 412.167 333.1 362 337.5 364C341.9 366 340.368 379.5 337.5 383C327.667 395 309.5 423.3 309.5 440.5C309.5 462 325.5 482 351 482C371.4 482 378.5 460.333 379.5 449.5L379.498 449.203C379.331 425.978 379.032 384.489 386.5 382C388.009 381.497 390.629 382.566 391.5 384.5C399.393 402.028 409.896 443.732 415 468.5C420.667 496 496 622 496 622Z" fill="#18181B" stroke="#FAFAFA"/>
<circle cx="364" cy="371" r="23.5" fill="#FAFAFA" stroke="#FAFAFA"/>
<path d="M253.5 341.5L271.5 437.5L281 388.5C270.5 342.5 255.667 337.167 253.5 341.5Z" fill="#18181B"/>
<path d="M271.5 437.5L253.5 341.5C255.667 337.167 270.5 342.5 281 388.5" stroke="#FAFAFA"/>
<path d="M310.5 342.5L266.5 411.5L306.5 394.5C317.7 353.7 313.833 342.833 310.5 342.5Z" fill="#18181B"/>
<path d="M266.5 411.5L310.5 342.5C313.833 342.833 317.7 353.7 306.5 394.5" stroke="#FAFAFA"/>
<path d="M312 428.5C348 434.833 391.5 438 310 446.5" stroke="#FAFAFA"/>
<!-- <g clip-path="url(#clip1_764_483)">
<path d="M368.821 360.176C368.821 362.488 366.898 364.382 364.5 364.382C362.102 364.382 360.179 362.488 360.179 360.176C360.179 357.865 362.102 355.971 364.5 355.971C366.898 355.971 368.821 357.865 368.821 360.176Z" stroke="#18181B" stroke-linejoin="round"/>
<path d="M355.821 365.118L351.482 372.176M355.821 365.118L360.161 372.176M355.821 365.118H364.5M351.482 372.176H360.161M351.482 372.176L355.821 379.235M360.161 372.176L364.5 365.118M360.161 372.176H368.839M360.161 372.176L364.5 379.235M360.161 372.176L355.821 379.235M364.5 365.118H373.179M364.5 365.118L368.839 372.176M373.179 365.118L377.518 372.176M373.179 365.118L368.839 372.176M377.518 372.176H368.839M377.518 372.176L373.179 379.235M368.839 372.176L364.5 379.235M368.839 372.176L373.179 379.235M364.5 379.235H355.821M364.5 379.235L360.161 386.294M364.5 379.235L368.839 386.294M364.5 379.235H373.179M355.821 379.235L360.161 386.294M360.161 386.294H368.839M368.839 386.294L373.179 379.235" stroke="#18181B" stroke-linejoin="round"/>
</g> -->
</svg>
