<svg width="688" height="744" viewBox="0 0 688 744" fill="none" xmlns="http://www.w3.org/2000/svg" preserveAspectRatio="xMinYMin slice">
<rect width="688" height="744" fill="#18181B"/>
<path d="M364 371H153.5C120.363 371 93.5 397.863 93.5 431L93.5 529.5" stroke="#FAFAFA"/>
<path d="M364 353V151C364 117.863 390.863 91 424 91H604" stroke="#FAFAFA"/>
<path d="M364 115V81C364 47.8629 390.863 21 424 21H704" stroke="#FAFAFA"/>
<path d="M364 353V621C364 654.137 390.863 681 424 681H604" stroke="#FAFAFA"/>
<path d="M577 554H561.5C528.363 554 501.5 580.863 501.5 614V681" stroke="#FAFAFA"/>
<path d="M364 353V353C364 324.281 387.281 301 416 301H604" stroke="#FAFAFA"/>
<path d="M364 353V81C364 47.8629 337.137 21 304 21H-32.5" stroke="#FAFAFA"/>
<path d="M364 353V719.5" stroke="#FAFAFA"/>
<path d="M364 371H103.5C70.3629 371 43.5 344.137 43.5 311L43.5 -10" stroke="#FAFAFA"/>
<path d="M709.5 719.5H153.5C120.363 719.5 93.5 692.637 93.5 659.5L93.5 640" stroke="#FAFAFA"/>
<path d="M75 530H111" stroke="#FAFAFA"/>
<path d="M75 640H111" stroke="#FAFAFA"/>
<line x1="591.5" y1="166" x2="591.5" y2="202" stroke="#FAFAFA"/>
<line x1="675.5" y1="166" x2="675.5" y2="202" stroke="#FAFAFA"/>
<path d="M591.5 184H503.5C486.931 184 473.5 197.431 473.5 214V271C473.5 287.569 460.069 301 443.5 301H442" stroke="#FAFAFA"/>
<line x1="691" y1="184.5" x2="676" y2="184.5" stroke="#FAFAFA"/>
<circle cx="364.5" cy="371.5" r="223" stroke="#FAFAFA" class="animate-fade origin-center animation-delay-800"/>
<circle cx="364.5" cy="371.5" r="163" stroke="#FAFAFA" class="animate-fade origin-center animation-delay-600"/>
<circle cx="364.5" cy="371.5" r="113" stroke="#FAFAFA" class="animate-fade origin-center animation-delay-400"/>
<circle cx="364.5" cy="371.5" r="73" stroke="#FAFAFA" class="animate-fade origin-center animation-delay-200"/>
<circle cx="364.5" cy="371.5" r="43" stroke="#FAFAFA" class="animate-fade origin-center"/>
<rect x="64.5" y="132.5" width="215" height="136" fill="#18181B" stroke="#FAFAFA"/>
<circle cx="85.5" cy="168.5" r="10" fill="#FAFAFA" stroke="#FAFAFA"/>
<rect x="113.5" y="172.5" width="117" height="74" fill="#18181B" stroke="#FAFAFA"/>
<rect x="64" y="132" width="216" height="19" fill="#FAFAFA"/>
<rect x="-28.5" y="54.5" width="204" height="39" rx="19.5" fill="#18181B" stroke="#FAFAFA"/>
<rect x="-38.5" y="44.5" width="204" height="39" rx="19.5" fill="#18181B" stroke="#FAFAFA"/>
<circle cx="132" cy="64" r="13.5" fill="#FAFAFA" stroke="#FAFAFA"/>
<rect x="560.5" y="61.5" width="54" height="54" fill="#FAFAFA" stroke="#FAFAFA"/>
<rect x="555.5" y="56.5" width="54" height="54" fill="#18181B" stroke="#FAFAFA"/>
<path d="M575.208 98.0833H570.833C570.06 98.0833 569.318 97.776 568.771 97.2291C568.224 96.6821 567.917 95.9402 567.917 95.1667V84.9583C567.917 84.1848 568.224 83.4429 568.771 82.8959C569.318 82.349 570.06 82.0417 570.833 82.0417H575.208M585.417 79.125V73.2917C585.417 72.1313 584.956 71.0185 584.135 70.1981C583.315 69.3776 582.202 68.9167 581.042 68.9167L575.208 82.0417V98.0833H591.658C592.362 98.0913 593.044 97.8448 593.58 97.3892C594.116 96.9336 594.47 96.2997 594.575 95.6042L596.588 82.4792C596.651 82.0611 596.623 81.6343 596.505 81.2283C596.387 80.8222 596.182 80.4467 595.905 80.1276C595.627 79.8086 595.284 79.5536 594.898 79.3805C594.512 79.2074 594.094 79.1202 593.671 79.125H585.417Z" stroke="#FAFAFA" stroke-linecap="square"/>
<rect x="-18" y="312" width="140" height="175" fill="#FAFAFA"/>
<rect x="-8" y="322" width="120" height="130" fill="#18181B"/>
<rect width="120" height="7" transform="matrix(1 0 0 -1 -8 467)" fill="#18181B"/>
<rect width="50" height="7" transform="matrix(1 0 0 -1 -8 479)" fill="#18181B"/>
<path d="M667 495V585H577V495C577 470.147 597.147 450 622 450C646.853 450 667 470.147 667 495Z" stroke="#FAFAFA"/>
<path d="M611.5 564C612.881 564 614 562.881 614 561.5C614 560.119 612.881 559 611.5 559C610.119 559 609 560.119 609 561.5C609 562.881 610.119 564 611.5 564Z" stroke="#FAFAFA" stroke-linecap="square"/>
<path d="M639 564C640.381 564 641.5 562.881 641.5 561.5C641.5 560.119 640.381 559 639 559C637.619 559 636.5 560.119 636.5 561.5C636.5 562.881 637.619 564 639 564Z" stroke="#FAFAFA" stroke-linecap="square"/>
<path d="M591.5 511.5H601.5L608.2 544.975C608.429 546.126 609.055 547.16 609.969 547.896C610.883 548.632 612.027 549.022 613.2 549H637.5C638.673 549.022 639.817 548.632 640.731 547.896C641.645 547.16 642.271 546.126 642.5 544.975L646.5 524H604" stroke="#FAFAFA" stroke-linecap="square"/>
<path d="M86.65 556.84C89.0592 556.276 91.5257 555.994 94 556C118.5 556 132.5 584 132.5 584C130.375 587.975 127.842 591.717 124.94 595.165M101.42 591.42C100.459 592.452 99.2995 593.279 98.0115 593.853C96.7235 594.427 95.3332 594.735 93.9233 594.76C92.5135 594.785 91.1131 594.526 89.8056 593.998C88.4982 593.47 87.3105 592.684 86.3135 591.687C85.3164 590.69 84.5304 589.502 84.0023 588.194C83.4742 586.887 83.2148 585.487 83.2397 584.077C83.2646 582.667 83.5732 581.276 84.1471 579.988C84.721 578.701 85.5484 577.541 86.58 576.58M114.79 604.79C108.807 609.351 101.522 611.877 94 612C69.5 612 55.5 584 55.5 584C59.8536 575.887 65.892 568.798 73.21 563.21L114.79 604.79Z" stroke="#FAFAFA" stroke-linecap="square"/>
<path d="M55.5 545.5L132.5 622.5" stroke="#FAFAFA" stroke-linecap="square"/>
<rect x="582" y="599" width="80" height="100" fill="#FAFAFA"/>
<path d="M622 674.833C636.267 674.833 647.833 663.267 647.833 649C647.833 634.733 636.267 623.167 622 623.167C607.733 623.167 596.167 634.733 596.167 649C596.167 663.267 607.733 674.833 622 674.833Z" stroke="#18181B" stroke-linecap="round" stroke-linejoin="round"/>
<path d="M596.167 649H647.833" stroke="#18181B" stroke-linecap="round" stroke-linejoin="round"/>
<path d="M622 623.167C628.462 630.241 632.134 639.421 632.333 649C632.134 658.579 628.462 667.759 622 674.833C615.538 667.759 611.866 658.579 611.667 649C611.866 639.421 615.538 630.241 622 623.167V623.167Z" stroke="#18181B" stroke-linecap="round" stroke-linejoin="round"/>
<path d="M646.091 166.545H619.909C617.499 166.545 615.545 168.499 615.545 170.909V197.091C615.545 199.501 617.499 201.455 619.909 201.455H646.091C648.501 201.455 650.455 199.501 650.455 197.091V170.909C650.455 168.499 648.501 166.545 646.091 166.545Z" stroke="#FAFAFA" stroke-linecap="square"/>
<path d="M639.545 177.455H626.455V190.545H639.545V177.455Z" stroke="#FAFAFA" stroke-linecap="square"/>
<path d="M626.455 160V166.545" stroke="#FAFAFA" stroke-linecap="square"/>
<path d="M639.545 160V166.545" stroke="#FAFAFA" stroke-linecap="square"/>
<path d="M626.455 201.455V208" stroke="#FAFAFA" stroke-linecap="square"/>
<path d="M639.545 201.455V208" stroke="#FAFAFA" stroke-linecap="square"/>
<path d="M650.455 177.455H657" stroke="#FAFAFA" stroke-linecap="square"/>
<path d="M650.455 188.364H657" stroke="#FAFAFA" stroke-linecap="square"/>
<path d="M609 177.455H615.545" stroke="#FAFAFA" stroke-linecap="square"/>
<path d="M609 188.364H615.545" stroke="#FAFAFA" stroke-linecap="square"/>
<rect x="542.5" y="264.5" width="157" height="115" fill="#18181B" stroke="#FAFAFA"/>
<rect x="551.5" y="274.5" width="148" height="95" fill="#18181B" stroke="#FAFAFA"/>
<rect x="647" y="290" width="60" height="13" fill="#FAFAFA"/>
<rect x="647" y="315" width="60" height="13" fill="#FAFAFA"/>
<rect x="647" y="341" width="60" height="13" fill="#FAFAFA"/>
<path d="M619 344.5V339.5C619 336.848 617.946 334.304 616.071 332.429C614.196 330.554 611.652 329.5 609 329.5H589C586.348 329.5 583.804 330.554 581.929 332.429C580.054 334.304 579 336.848 579 339.5V344.5" stroke="#FAFAFA" stroke-linecap="square"/>
<path d="M599 319.5C604.523 319.5 609 315.023 609 309.5C609 303.977 604.523 299.5 599 299.5C593.477 299.5 589 303.977 589 309.5C589 315.023 593.477 319.5 599 319.5Z" stroke="#FAFAFA" stroke-linecap="square"/>
<rect x="321" y="608" width="216" height="19" fill="#FAFAFA"/>
<path d="M314.002 445.5C314.002 445.5 302.002 433.5 316.002 427.5C334.086 429.509 358.002 433.5 358.002 439.5C358.002 444 348.713 441.88 314.002 445.5Z" fill="#18181B" stroke="#FAFAFA"/>
<path d="M383.002 532.5L416.502 622H501.502L414.002 467.5C404.5 411 399 396 396.5 382C395.071 374 386 375.5 385.502 384C385.502 429.5 384.502 480.5 359.502 480.5C315.002 480.5 313.835 444.667 316.002 427.5C333.602 407.5 344.502 364 337.502 364C331.502 364 306.002 402.5 306.002 402.5C314.802 382.9 321.002 342.5 316.002 341C310.502 341 281.502 392 278.502 397.5C252.502 361.1 242.835 361 243.002 367.5C296.002 513.5 312.002 537 383.002 532.5Z" fill="#18181B" stroke="#FAFAFA"/>
<path d="M278.502 397.5L267.502 416C266.002 418.5 263.902 424.9 267.502 432.5" stroke="#FAFAFA"/>
<path d="M306.502 401.5C298.502 414.5 272.5 444.5 279.502 460" stroke="#FAFAFA"/>
<circle cx="364" cy="371" r="23.5" fill="#FAFAFA" stroke="#FAFAFA"/>
<path d="M367.821 360.177C367.821 362.488 365.898 364.382 363.5 364.382C361.102 364.382 359.179 362.488 359.179 360.177C359.179 357.865 361.102 355.971 363.5 355.971C365.898 355.971 367.821 357.865 367.821 360.177Z" stroke="#18181B" stroke-linejoin="round"/>
<path d="M354.821 365.118L350.482 372.177M354.821 365.118L359.161 372.177M354.821 365.118H363.5M350.482 372.177H359.161M350.482 372.177L354.821 379.235M359.161 372.177L363.5 365.118M359.161 372.177H367.839M359.161 372.177L363.5 379.235M359.161 372.177L354.821 379.235M363.5 365.118H372.179M363.5 365.118L367.839 372.177M372.179 365.118L376.518 372.177M372.179 365.118L367.839 372.177M376.518 372.177H367.839M376.518 372.177L372.179 379.235M367.839 372.177L363.5 379.235M367.839 372.177L372.179 379.235M363.5 379.235H354.821M363.5 379.235L359.161 386.294M363.5 379.235L367.839 386.294M363.5 379.235H372.179M354.821 379.235L359.161 386.294M359.161 386.294H367.839M367.839 386.294L372.179 379.235" stroke="#18181B" stroke-linejoin="round"/>
</svg>
