<svg width="167" height="34" viewBox="0 0 167 34" fill="none" xmlns="http://www.w3.org/2000/svg">
  <g>
    <ellipse cx="14.1231" cy="5.23077" rx="5.23077" ry="5.23077" fill="#4ADE80"/>
    <path d="M14.1231 26.1538L18.8308 18.3077H9.41539L14.1231 26.1538Z" fill="#FB7185"/>
    <path d="M4.70769 26.1538L9.41539 18.3077H0L4.70769 26.1538Z" fill="#FB7185"/>
    <path d="M9.41538 18.3077L14.1231 10.4615H4.7077L9.41538 18.3077Z" fill="#FB7185"/>
    <path d="M9.41538 34L14.1231 26.1538H4.7077L9.41538 34Z" fill="#FB7185"/>
    <path d="M18.8308 34L23.5385 26.1538H14.1231L18.8308 34Z" fill="#FB7185"/>
    <path d="M23.5385 26.1538L28.2462 18.3077H18.8308L23.5385 26.1538Z" fill="#FB7185"/>
    <path d="M18.8308 18.3077L23.5385 10.4615H14.1231L18.8308 18.3077Z" fill="#FB7185"/>
    <path d="M9.41538 18.3077L14.1231 26.1538H4.7077L9.41538 18.3077Z" fill="#FDA4AF"/>
    <path d="M14.1231 26.1538L18.8308 34H9.41539L14.1231 26.1538Z" fill="#FDA4AF"/>
    <path d="M18.8308 18.3077L23.5385 26.1538H14.1231L18.8308 18.3077Z" fill="#FDA4AF"/>
    <path d="M14.1231 10.4615L18.8308 18.3077H9.41539L14.1231 10.4615Z" fill="#FDA4AF"/>
    <path d="M4.70769 10.4615L9.41539 18.3077H0L4.70769 10.4615Z" fill="#FDA4AF"/>
    <path d="M23.5385 10.4615L28.2462 18.3077H18.8308L23.5385 10.4615Z" fill="#FDA4AF"/>
  </g>
  <path d="M39.531 24V14.1818H41.4422V24H39.531ZM40.4962 12.6669C40.1638 12.6669 39.8783 12.5561 39.6396 12.3345C39.4052 12.1087 39.2881 11.8402 39.2881 11.5291C39.2881 11.2138 39.4052 10.9453 39.6396 10.7237C39.8783 10.4979 40.1638 10.3849 40.4962 10.3849C40.8285 10.3849 41.1119 10.4979 41.3463 10.7237C41.5849 10.9453 41.7043 11.2138 41.7043 11.5291C41.7043 11.8402 41.5849 12.1087 41.3463 12.3345C41.1119 12.5561 40.8285 12.6669 40.4962 12.6669ZM48.149 24.1982C47.1987 24.1982 46.3806 23.983 45.6945 23.5526C45.0127 23.1179 44.4885 22.5192 44.122 21.7564C43.7556 20.9936 43.5723 20.12 43.5723 19.1357C43.5723 18.1385 43.7598 17.2585 44.1348 16.4957C44.5098 15.7287 45.0382 15.13 45.7201 14.6996C46.4019 14.2692 47.2051 14.054 48.1299 14.054C48.8756 14.054 49.5404 14.1925 50.1242 14.4695C50.708 14.7422 51.1789 15.1257 51.5368 15.62C51.899 16.1143 52.1142 16.6918 52.1824 17.3523H50.3223C50.2201 16.892 49.9857 16.4957 49.6192 16.1634C49.257 15.831 48.7712 15.6648 48.1618 15.6648C47.6291 15.6648 47.1625 15.8054 46.762 16.0866C46.3657 16.3636 46.0567 16.7599 45.8351 17.2756C45.6135 17.7869 45.5027 18.392 45.5027 19.0909C45.5027 19.8068 45.6114 20.4247 45.8287 20.9446C46.046 21.4645 46.3529 21.8672 46.7492 22.1527C47.1497 22.4382 47.6206 22.581 48.1618 22.581C48.524 22.581 48.8522 22.5149 49.1462 22.3828C49.4445 22.2464 49.6938 22.0526 49.8941 21.8011C50.0986 21.5497 50.2414 21.2472 50.3223 20.8935H52.1824C52.1142 21.5284 51.9076 22.0952 51.5624 22.5938C51.2172 23.0923 50.7549 23.4844 50.1753 23.7699C49.6 24.0554 48.9246 24.1982 48.149 24.1982ZM56.1375 18.1705V24H54.2263V10.9091H56.1119V15.7798H56.2334C56.4635 15.2514 56.815 14.8317 57.2881 14.5206C57.7611 14.2095 58.379 14.054 59.1418 14.054C59.815 14.054 60.4031 14.1925 60.906 14.4695C61.4131 14.7464 61.8051 15.1598 62.0821 15.7095C62.3633 16.255 62.504 16.9368 62.504 17.755V24H60.5927V17.9851C60.5927 17.2649 60.4074 16.7067 60.0366 16.3104C59.6659 15.9098 59.1503 15.7095 58.4898 15.7095C58.0381 15.7095 57.6332 15.8054 57.2753 15.9972C56.9216 16.1889 56.6425 16.4702 56.4379 16.8409C56.2376 17.2074 56.1375 17.6506 56.1375 18.1705ZM65.0544 24V14.1818H66.9656V24H65.0544ZM66.0196 12.6669C65.6872 12.6669 65.4017 12.5561 65.1631 12.3345C64.9287 12.1087 64.8115 11.8402 64.8115 11.5291C64.8115 11.2138 64.9287 10.9453 65.1631 10.7237C65.4017 10.4979 65.6872 10.3849 66.0196 10.3849C66.352 10.3849 66.6354 10.4979 66.8697 10.7237C67.1084 10.9453 67.2277 11.2138 67.2277 11.5291C67.2277 11.8402 67.1084 12.1087 66.8697 12.3345C66.6354 12.5561 66.352 12.6669 66.0196 12.6669ZM73.6533 27.8864C72.8735 27.8864 72.2023 27.7841 71.6398 27.5795C71.0816 27.375 70.6256 27.1044 70.2719 26.7678C69.9182 26.4311 69.654 26.0625 69.4793 25.6619L71.122 24.9844C71.2371 25.1719 71.3905 25.37 71.5823 25.5788C71.7783 25.7919 72.0425 25.973 72.3749 26.1222C72.7115 26.2713 73.1441 26.3459 73.6725 26.3459C74.3969 26.3459 74.9956 26.169 75.4686 25.8153C75.9416 25.4659 76.1782 24.9077 76.1782 24.1406V22.2102H76.0567C75.9416 22.419 75.7755 22.6513 75.5581 22.907C75.3451 23.1626 75.051 23.3842 74.676 23.5717C74.301 23.7592 73.8131 23.853 73.2122 23.853C72.4367 23.853 71.7378 23.6719 71.1157 23.3097C70.4978 22.9432 70.0077 22.4041 69.6455 21.6925C69.2875 20.9766 69.1085 20.0966 69.1085 19.0526C69.1085 18.0085 69.2854 17.1136 69.6391 16.3679C69.997 15.6222 70.4871 15.0511 71.1093 14.6548C71.7314 14.2543 72.4367 14.054 73.225 14.054C73.8344 14.054 74.3266 14.1562 74.7016 14.3608C75.0766 14.5611 75.3685 14.7955 75.5773 15.0639C75.7904 15.3324 75.9544 15.5689 76.0695 15.7734H76.2101V14.1818H78.083V24.2173C78.083 25.0611 77.887 25.7536 77.4949 26.2947C77.1029 26.8359 76.5723 27.2365 75.9033 27.4964C75.2385 27.7564 74.4885 27.8864 73.6533 27.8864ZM73.6341 22.2678C74.1838 22.2678 74.6483 22.1399 75.0276 21.8842C75.4111 21.6243 75.7009 21.2536 75.8969 20.772C76.0972 20.2862 76.1973 19.7045 76.1973 19.027C76.1973 18.3665 76.0993 17.7848 75.9033 17.282C75.7073 16.7791 75.4196 16.3871 75.0404 16.1058C74.6611 15.8203 74.1924 15.6776 73.6341 15.6776C73.0588 15.6776 72.5794 15.8267 72.1959 16.125C71.8124 16.419 71.5226 16.8196 71.3266 17.3267C71.1348 17.8338 71.0389 18.4006 71.0389 19.027C71.0389 19.6705 71.137 20.2351 71.333 20.7209C71.529 21.2067 71.8188 21.5859 72.2023 21.8587C72.5901 22.1314 73.0674 22.2678 73.6341 22.2678ZM84.7818 24.1982C83.8614 24.1982 83.0581 23.9872 82.372 23.5653C81.686 23.1435 81.1533 22.5533 80.774 21.7947C80.3948 21.0362 80.2051 20.1499 80.2051 19.1357C80.2051 18.1172 80.3948 17.2266 80.774 16.4638C81.1533 15.701 81.686 15.1087 82.372 14.6868C83.0581 14.2649 83.8614 14.054 84.7818 14.054C85.7023 14.054 86.5056 14.2649 87.1916 14.6868C87.8777 15.1087 88.4104 15.701 88.7897 16.4638C89.1689 17.2266 89.3585 18.1172 89.3585 19.1357C89.3585 20.1499 89.1689 21.0362 88.7897 21.7947C88.4104 22.5533 87.8777 23.1435 87.1916 23.5653C86.5056 23.9872 85.7023 24.1982 84.7818 24.1982ZM84.7882 22.5938C85.3848 22.5938 85.8791 22.4361 86.2712 22.1207C86.6632 21.8054 86.953 21.3857 87.1405 20.8615C87.3323 20.3374 87.4282 19.7599 87.4282 19.1293C87.4282 18.5028 87.3323 17.9276 87.1405 17.4034C86.953 16.875 86.6632 16.451 86.2712 16.1314C85.8791 15.8118 85.3848 15.652 84.7882 15.652C84.1874 15.652 83.6888 15.8118 83.2925 16.1314C82.9005 16.451 82.6085 16.875 82.4168 17.4034C82.2293 17.9276 82.1355 18.5028 82.1355 19.1293C82.1355 19.7599 82.2293 20.3374 82.4168 20.8615C82.6085 21.3857 82.9005 21.8054 83.2925 22.1207C83.6888 22.4361 84.1874 22.5938 84.7882 22.5938ZM98.1668 18.1705V24H96.2556V14.1818H98.0901V15.7798H98.2115C98.4374 15.2599 98.7911 14.8423 99.2726 14.527C99.7584 14.2116 100.37 14.054 101.107 14.054C101.776 14.054 102.362 14.1946 102.865 14.4759C103.368 14.7528 103.758 15.1662 104.035 15.7159C104.312 16.2656 104.45 16.9453 104.45 17.755V24H102.539V17.9851C102.539 17.2734 102.354 16.7173 101.983 16.3168C101.612 15.9119 101.103 15.7095 100.455 15.7095C100.012 15.7095 99.6178 15.8054 99.2726 15.9972C98.9317 16.1889 98.6611 16.4702 98.4608 16.8409C98.2648 17.2074 98.1668 17.6506 98.1668 18.1705ZM111.245 24.1982C110.278 24.1982 109.444 23.9915 108.746 23.5781C108.051 23.1605 107.514 22.5746 107.135 21.8203C106.76 21.0618 106.572 20.1733 106.572 19.1548C106.572 18.1491 106.76 17.2628 107.135 16.4957C107.514 15.7287 108.042 15.13 108.72 14.6996C109.402 14.2692 110.199 14.054 111.111 14.054C111.665 14.054 112.202 14.1456 112.721 14.3288C113.241 14.5121 113.708 14.7997 114.121 15.1918C114.535 15.5838 114.861 16.093 115.099 16.7195C115.338 17.3416 115.457 18.098 115.457 18.9886V19.6662H107.653V18.2344H113.584C113.584 17.7315 113.482 17.2862 113.278 16.8984C113.073 16.5064 112.785 16.1974 112.415 15.9716C112.048 15.7457 111.618 15.6328 111.123 15.6328C110.587 15.6328 110.118 15.7649 109.717 16.0291C109.321 16.2891 109.014 16.63 108.797 17.0518C108.584 17.4695 108.477 17.9233 108.477 18.4134V19.532C108.477 20.1882 108.592 20.7464 108.822 21.2067C109.057 21.6669 109.383 22.0185 109.8 22.2614C110.218 22.5 110.706 22.6193 111.264 22.6193C111.626 22.6193 111.957 22.5682 112.255 22.4659C112.553 22.3594 112.811 22.2017 113.028 21.9929C113.246 21.7841 113.412 21.5263 113.527 21.2195L115.336 21.5455C115.191 22.0781 114.931 22.5447 114.556 22.9453C114.185 23.3416 113.719 23.6506 113.156 23.8722C112.598 24.0895 111.961 24.1982 111.245 24.1982ZM122.161 14.1818V15.7159H116.798V14.1818H122.161ZM118.236 11.8295H120.147V21.1172C120.147 21.4879 120.203 21.767 120.314 21.9545C120.424 22.1378 120.567 22.2635 120.742 22.3317C120.921 22.3956 121.115 22.4276 121.324 22.4276C121.477 22.4276 121.611 22.4169 121.726 22.3956C121.841 22.3743 121.931 22.3572 121.995 22.3445L122.34 23.9233C122.229 23.9659 122.071 24.0085 121.867 24.0511C121.662 24.098 121.407 24.1236 121.1 24.1278C120.597 24.1364 120.128 24.0469 119.694 23.8594C119.259 23.6719 118.907 23.3821 118.639 22.9901C118.37 22.598 118.236 22.1058 118.236 21.5135V11.8295ZM126.404 24L123.514 14.1818H125.49L127.414 21.392H127.509L129.44 14.1818H131.415L133.333 21.3601H133.429L135.34 14.1818H137.315L134.432 24H132.482L130.488 16.9112H130.341L128.347 24H126.404ZM142.965 24.1982C142.045 24.1982 141.242 23.9872 140.556 23.5653C139.87 23.1435 139.337 22.5533 138.958 21.7947C138.578 21.0362 138.389 20.1499 138.389 19.1357C138.389 18.1172 138.578 17.2266 138.958 16.4638C139.337 15.701 139.87 15.1087 140.556 14.6868C141.242 14.2649 142.045 14.054 142.965 14.054C143.886 14.054 144.689 14.2649 145.375 14.6868C146.061 15.1087 146.594 15.701 146.973 16.4638C147.353 17.2266 147.542 18.1172 147.542 19.1357C147.542 20.1499 147.353 21.0362 146.973 21.7947C146.594 22.5533 146.061 23.1435 145.375 23.5653C144.689 23.9872 143.886 24.1982 142.965 24.1982ZM142.972 22.5938C143.568 22.5938 144.063 22.4361 144.455 22.1207C144.847 21.8054 145.137 21.3857 145.324 20.8615C145.516 20.3374 145.612 19.7599 145.612 19.1293C145.612 18.5028 145.516 17.9276 145.324 17.4034C145.137 16.875 144.847 16.451 144.455 16.1314C144.063 15.8118 143.568 15.652 142.972 15.652C142.371 15.652 141.872 15.8118 141.476 16.1314C141.084 16.451 140.792 16.875 140.6 17.4034C140.413 17.9276 140.319 18.5028 140.319 19.1293C140.319 19.7599 140.413 20.3374 140.6 20.8615C140.792 21.3857 141.084 21.8054 141.476 22.1207C141.872 22.4361 142.371 22.5938 142.972 22.5938ZM149.675 24V14.1818H151.523V15.7415H151.625C151.804 15.2131 152.119 14.7976 152.571 14.495C153.027 14.1882 153.543 14.0348 154.118 14.0348C154.237 14.0348 154.378 14.0391 154.54 14.0476C154.706 14.0561 154.836 14.0668 154.93 14.0795V15.9077C154.853 15.8864 154.717 15.8629 154.521 15.8374C154.325 15.8075 154.129 15.7926 153.933 15.7926C153.481 15.7926 153.078 15.8885 152.724 16.0803C152.375 16.2678 152.098 16.5298 151.894 16.8665C151.689 17.1989 151.587 17.5781 151.587 18.0043V24H149.675ZM158.342 20.6697L158.329 18.3366H158.661L162.573 14.1818H164.861L160.4 18.9119H160.099L158.342 20.6697ZM156.584 24V10.9091H158.495V24H156.584ZM162.784 24L159.268 19.3338L160.585 17.9979L165.13 24H162.784Z" fill="currentColor"/>
</svg>
