<svg width="32" height="32" viewBox="0 0 32 32" fill="none" xmlns="http://www.w3.org/2000/svg">
<g clip-path="url(#clip0_713_461)">
<ellipse cx="16" cy="4.92308" rx="4.92308" ry="4.92308" fill="#4ADE80"/>
<path d="M11.5692 32H20.4308L29.2923 17.2308L24.8615 9.84615H7.13846L2.7077 17.2308L11.5692 32Z" fill="white"/>
<path d="M16 24.6154L20.4308 17.2308H11.5692L16 24.6154Z" fill="#F43F5E"/>
<path d="M7.13846 24.6154L11.5692 17.2308H2.7077L7.13846 24.6154Z" fill="#F43F5E"/>
<path d="M11.5692 17.2308L16 9.84615H7.13847L11.5692 17.2308Z" fill="#F43F5E"/>
<path d="M11.5692 32L16 24.6154H7.13847L11.5692 32Z" fill="#F43F5E"/>
<path d="M20.4308 32L24.8615 24.6154H16L20.4308 32Z" fill="#F43F5E"/>
<path d="M24.8615 24.6154L29.2923 17.2308H20.4308L24.8615 24.6154Z" fill="#F43F5E"/>
<path d="M20.4308 17.2308L24.8615 9.84615H16L20.4308 17.2308Z" fill="#F43F5E"/>
<path d="M11.5692 17.2308L16 24.6154H7.13847L11.5692 17.2308Z" fill="#FDA4AF"/>
<path d="M16 24.6154L20.4308 32H11.5692L16 24.6154Z" fill="#FDA4AF"/>
<path d="M20.4308 17.2308L24.8615 24.6154H16L20.4308 17.2308Z" fill="#FDA4AF"/>
<path d="M16 9.84615L20.4308 17.2308H11.5692L16 9.84615Z" fill="#FDA4AF"/>
<path d="M7.13846 9.84615L11.5692 17.2308H2.7077L7.13846 9.84615Z" fill="#FDA4AF"/>
<path d="M24.8615 9.84615L29.2923 17.2308H20.4308L24.8615 9.84615Z" fill="#FDA4AF"/>
</g>
<defs>
<clipPath id="clip0_713_461">
<rect width="26.5846" height="32" fill="white" transform="translate(2.7077)"/>
</clipPath>
</defs>
</svg>
