<svg width="32" height="32" viewBox="0 0 32 32" fill="none" xmlns="http://www.w3.org/2000/svg">
<g clip-path="url(#clip0_713_461)">
<ellipse cx="16" cy="4.92308" rx="4.92308" ry="4.92308" fill="#4ADE80"/>
<path d="M16 24.6154L20.4308 17.2308H11.5692L16 24.6154Z" fill="#FB7185"/>
<path d="M7.13847 24.6154L11.5692 17.2308H2.7077L7.13847 24.6154Z" fill="#FB7185"/>
<path d="M11.5693 17.2308L16 9.84616H7.13849L11.5693 17.2308Z" fill="#FB7185"/>
<path d="M11.5693 32L16 24.6154H7.13849L11.5693 32Z" fill="#FB7185"/>
<path d="M20.4308 32L24.8615 24.6154H16L20.4308 32Z" fill="#FB7185"/>
<path d="M24.8615 24.6154L29.2923 17.2308H20.4308L24.8615 24.6154Z" fill="#FB7185"/>
<path d="M20.4308 17.2308L24.8615 9.84616H16L20.4308 17.2308Z" fill="#FB7185"/>
<path d="M11.5693 17.2308L16 24.6154H7.13849L11.5693 17.2308Z" fill="#FDA4AF"/>
<path d="M16 24.6154L20.4308 32H11.5692L16 24.6154Z" fill="#FDA4AF"/>
<path d="M20.4308 17.2308L24.8615 24.6154H16L20.4308 17.2308Z" fill="#FDA4AF"/>
<path d="M16 9.84616L20.4308 17.2308H11.5692L16 9.84616Z" fill="#FDA4AF"/>
<path d="M7.13847 9.84616L11.5692 17.2308H2.7077L7.13847 9.84616Z" fill="#FDA4AF"/>
<path d="M24.8615 9.84616L29.2923 17.2308H20.4308L24.8615 9.84616Z" fill="#FDA4AF"/>
</g>
<defs>
<clipPath id="clip0_713_461">
<rect width="26.5846" height="32" fill="white" transform="translate(2.7077)"/>
</clipPath>
</defs>
</svg>
